<svg xmlns="http://www.w3.org/2000/svg" xmlns:xlink="http://www.w3.org/1999/xlink" width="2000" zoomAndPan="magnify" viewBox="0 0 1500 1499.999933" height="2000" preserveAspectRatio="xMidYMid meet" version="1.0"><defs><g/><clipPath id="45ae492b60"><path d="M 328 715 L 519 715 L 519 1032.273438 L 328 1032.273438 Z M 328 715 " clip-rule="nonzero"/></clipPath><clipPath id="b9d9731226"><path d="M 88 715 L 280 715 L 280 1032.273438 L 88 1032.273438 Z M 88 715 " clip-rule="nonzero"/></clipPath><clipPath id="f28902df80"><path d="M 276 467.523438 L 469 467.523438 L 469 607 L 276 607 Z M 276 467.523438 " clip-rule="nonzero"/></clipPath><clipPath id="6908d95d2d"><path d="M 249 580 L 404.585938 580 L 404.585938 751 L 249 751 Z M 249 580 " clip-rule="nonzero"/></clipPath><clipPath id="ec6ebaf548"><path d="M 301.871094 580.527344 C 358.347656 580.527344 404.257812 618.828125 404.257812 665.707031 C 404.257812 712.589844 358.347656 750.558594 301.871094 750.558594 C 245.390625 750.558594 199.484375 712.589844 199.484375 665.707031 C 199.484375 618.828125 245.390625 580.527344 301.871094 580.527344 Z M 301.871094 580.527344 " clip-rule="evenodd"/></clipPath></defs><path fill="#094195" d="M 121.867188 522.421875 C 91.152344 621.46875 113.28125 695.09375 188.582031 743.625 C 262.898438 783.242188 294.273438 831.445312 283.042969 888.234375 C 279.082031 830.457031 219.628906 798.761719 160.511719 765.085938 C 88.179688 723.816406 51.515625 622.789062 121.867188 522.421875 Z M 121.867188 522.421875 " fill-opacity="1" fill-rule="evenodd"/><path fill="#094195" d="M 476.917969 522.421875 C 507.964844 621.46875 485.503906 695.09375 410.203125 743.625 C 335.886719 783.242188 304.511719 831.445312 315.742188 888.234375 C 319.703125 830.457031 379.15625 798.761719 438.605469 765.085938 C 510.605469 723.816406 547.265625 622.789062 476.917969 522.421875 Z M 476.917969 522.421875 " fill-opacity="1" fill-rule="evenodd"/><g clip-path="url(#45ae492b60)"><path fill="#e4b53d" d="M 356.367188 1032.179688 C 333.90625 942.710938 357.355469 878.328125 426.714844 839.371094 C 494.753906 808.003906 525.136719 766.734375 517.871094 715.890625 C 511.597656 766.734375 457.101562 791.828125 402.605469 818.902344 C 336.550781 851.585938 298.898438 939.40625 356.367188 1032.179688 Z M 356.367188 1032.179688 " fill-opacity="1" fill-rule="evenodd"/></g><g clip-path="url(#b9d9731226)"><path fill="#e4b53d" d="M 251.007812 1032.179688 C 273.464844 942.710938 250.015625 878.328125 180.328125 839.371094 C 112.289062 808.003906 81.902344 766.734375 89.167969 715.890625 C 95.445312 766.734375 150.269531 791.828125 204.4375 818.902344 C 270.492188 851.585938 308.144531 939.40625 251.007812 1032.179688 Z M 251.007812 1032.179688 " fill-opacity="1" fill-rule="evenodd"/></g><path fill="#1461ae" d="M 207.410156 557.746094 C 150.601562 555.4375 126.820312 553.125 136.070312 551.144531 C 246.050781 496.339844 300.878906 469.265625 300.878906 469.265625 C 309.464844 507.5625 314.421875 534.308594 297.90625 555.105469 C 323.335938 586.140625 268.179688 552.136719 210.382812 608.59375 C 208.398438 574.585938 207.410156 557.746094 207.410156 557.746094 Z M 207.410156 557.746094 " fill-opacity="1" fill-rule="evenodd"/><g clip-path="url(#f28902df80)"><path fill="#094195" d="M 395.667969 556.097656 C 452.148438 553.785156 475.925781 551.476562 466.679688 549.492188 C 357.027344 495.019531 302.199219 467.617188 302.199219 467.617188 C 293.28125 505.914062 265.207031 533.976562 281.722656 554.777344 C 286.675781 568.644531 301.871094 572.605469 299.886719 569.304688 C 328.292969 568.644531 371.226562 582.839844 392.695312 606.941406 C 394.679688 572.933594 395.667969 556.097656 395.667969 556.097656 Z M 395.667969 556.097656 " fill-opacity="1" fill-rule="evenodd"/></g><path fill="#1461ae" d="M 170.089844 541.238281 L 176.695312 541.238281 L 176.695312 636.65625 L 170.089844 636.65625 Z M 170.089844 541.238281 " fill-opacity="1" fill-rule="evenodd"/><path fill="#1461ae" d="M 166.125 630.710938 L 168.105469 630.710938 L 168.105469 666.367188 L 166.125 666.367188 Z M 166.125 630.710938 " fill-opacity="1" fill-rule="evenodd"/><path fill="#1461ae" d="M 168.765625 642.269531 L 170.75 642.269531 L 170.75 677.925781 L 168.765625 677.925781 Z M 168.765625 642.269531 " fill-opacity="1" fill-rule="evenodd"/><path fill="#1461ae" d="M 172.398438 629.722656 L 174.382812 629.722656 L 174.382812 665.378906 L 172.398438 665.378906 Z M 172.398438 629.722656 " fill-opacity="1" fill-rule="evenodd"/><path fill="#1461ae" d="M 176.03125 639.957031 L 178.015625 639.957031 L 178.015625 675.613281 L 176.03125 675.613281 Z M 176.03125 639.957031 " fill-opacity="1" fill-rule="evenodd"/><path fill="#1461ae" d="M 178.015625 631.042969 L 179.996094 631.042969 L 179.996094 666.699219 L 178.015625 666.699219 Z M 178.015625 631.042969 " fill-opacity="1" fill-rule="evenodd"/><path fill="#1461ae" d="M 184.949219 638.304688 C 184.949219 639.152344 184.867188 639.988281 184.703125 640.816406 C 184.539062 641.648438 184.292969 642.453125 183.96875 643.234375 C 183.644531 644.015625 183.25 644.757812 182.78125 645.460938 C 182.308594 646.164062 181.777344 646.8125 181.179688 647.410156 C 180.578125 648.007812 179.929688 648.542969 179.226562 649.011719 C 178.523438 649.480469 177.78125 649.878906 177 650.203125 C 176.21875 650.523438 175.410156 650.769531 174.582031 650.933594 C 173.753906 651.097656 172.914062 651.183594 172.070312 651.183594 C 171.222656 651.183594 170.386719 651.097656 169.558594 650.933594 C 168.726562 650.769531 167.921875 650.523438 167.140625 650.203125 C 166.359375 649.878906 165.617188 649.480469 164.914062 649.011719 C 164.210938 648.542969 163.558594 648.007812 162.960938 647.410156 C 162.363281 646.8125 161.828125 646.164062 161.359375 645.460938 C 160.890625 644.757812 160.492188 644.015625 160.167969 643.234375 C 159.84375 642.453125 159.601562 641.648438 159.4375 640.816406 C 159.269531 639.988281 159.1875 639.152344 159.1875 638.304688 C 159.1875 637.460938 159.269531 636.621094 159.4375 635.792969 C 159.601562 634.964844 159.84375 634.160156 160.167969 633.378906 C 160.492188 632.597656 160.890625 631.855469 161.359375 631.152344 C 161.828125 630.449219 162.363281 629.800781 162.960938 629.199219 C 163.558594 628.601562 164.210938 628.070312 164.914062 627.601562 C 165.617188 627.128906 166.359375 626.734375 167.140625 626.410156 C 167.921875 626.085938 168.726562 625.84375 169.558594 625.675781 C 170.386719 625.511719 171.222656 625.429688 172.070312 625.429688 C 172.914062 625.429688 173.753906 625.511719 174.582031 625.675781 C 175.410156 625.84375 176.21875 626.085938 177 626.410156 C 177.78125 626.734375 178.523438 627.128906 179.226562 627.601562 C 179.929688 628.070312 180.578125 628.601562 181.179688 629.199219 C 181.777344 629.800781 182.308594 630.449219 182.78125 631.152344 C 183.25 631.855469 183.644531 632.597656 183.96875 633.378906 C 184.292969 634.160156 184.539062 634.964844 184.703125 635.792969 C 184.867188 636.621094 184.949219 637.460938 184.949219 638.304688 Z M 184.949219 638.304688 " fill-opacity="1" fill-rule="nonzero"/><path fill="#1461ae" d="M 301.871094 580.527344 C 358.347656 580.527344 404.257812 618.828125 404.257812 665.707031 C 404.257812 712.589844 358.347656 750.558594 301.871094 750.558594 C 245.390625 750.558594 199.484375 712.589844 199.484375 665.707031 C 199.484375 618.828125 245.390625 580.527344 301.871094 580.527344 Z M 301.871094 580.527344 " fill-opacity="1" fill-rule="evenodd"/><g clip-path="url(#6908d95d2d)"><g clip-path="url(#ec6ebaf548)"><path fill="#094195" d="M 454.457031 578.546875 C 439.597656 696.082031 400.953125 759.144531 338.53125 767.398438 C 252.328125 700.707031 228.546875 640.617188 267.851562 587.460938 C 309.796875 567.324219 371.890625 564.351562 454.457031 578.546875 Z M 454.457031 578.546875 " fill-opacity="1" fill-rule="evenodd"/></g></g><g fill="#000000" fill-opacity="1"><g transform="translate(547.263802, 825.749909)"><g><path d="M 134.6875 -133.265625 L 85.6875 -133.265625 L 85.6875 0 L 52.734375 0 L 52.734375 -133.265625 L 4.390625 -133.265625 L 4.390625 -159.96875 L 134.6875 -159.96875 Z M 134.6875 -133.265625 "/></g></g></g><g fill="#000000" fill-opacity="1"><g transform="translate(668.003538, 825.749909)"><g><path d="M 81.078125 0 C 79.609375 -2.851562 78.546875 -6.40625 77.890625 -10.65625 C 70.203125 -2.082031 60.207031 2.203125 47.90625 2.203125 C 36.257812 2.203125 26.609375 -1.164062 18.953125 -7.90625 C 11.296875 -14.644531 7.46875 -23.144531 7.46875 -33.40625 C 7.46875 -46 12.132812 -55.664062 21.46875 -62.40625 C 30.8125 -69.144531 44.3125 -72.550781 61.96875 -72.625 L 76.578125 -72.625 L 76.578125 -79.4375 C 76.578125 -84.925781 75.164062 -89.316406 72.34375 -92.609375 C 69.519531 -95.910156 65.070312 -97.5625 59 -97.5625 C 53.65625 -97.5625 49.460938 -96.28125 46.421875 -93.71875 C 43.378906 -91.15625 41.859375 -87.640625 41.859375 -83.171875 L 10.109375 -83.171875 C 10.109375 -90.054688 12.234375 -96.425781 16.484375 -102.28125 C 20.734375 -108.144531 26.738281 -112.738281 34.5 -116.0625 C 42.257812 -119.394531 50.972656 -121.0625 60.640625 -121.0625 C 75.296875 -121.0625 86.925781 -117.378906 95.53125 -110.015625 C 104.132812 -102.660156 108.4375 -92.316406 108.4375 -78.984375 L 108.4375 -27.46875 C 108.507812 -16.1875 110.082031 -7.65625 113.15625 -1.875 L 113.15625 0 Z M 54.828125 -22.078125 C 59.515625 -22.078125 63.832031 -23.117188 67.78125 -25.203125 C 71.738281 -27.296875 74.671875 -30.101562 76.578125 -33.625 L 76.578125 -54.046875 L 64.703125 -54.046875 C 48.816406 -54.046875 40.359375 -48.554688 39.328125 -37.578125 L 39.21875 -35.703125 C 39.21875 -31.742188 40.609375 -28.484375 43.390625 -25.921875 C 46.179688 -23.359375 49.992188 -22.078125 54.828125 -22.078125 Z M 54.828125 -22.078125 "/></g></g><g transform="translate(788.63341, 825.749909)"><g><path d="M 45.703125 0 L 13.84375 0 L 13.84375 -118.875 L 45.703125 -118.875 Z M 11.96875 -149.640625 C 11.96875 -154.398438 13.5625 -158.316406 16.75 -161.390625 C 19.9375 -164.460938 24.273438 -166 29.765625 -166 C 35.191406 -166 39.515625 -164.460938 42.734375 -161.390625 C 45.960938 -158.316406 47.578125 -154.398438 47.578125 -149.640625 C 47.578125 -144.804688 45.945312 -140.847656 42.6875 -137.765625 C 39.425781 -134.691406 35.117188 -133.15625 29.765625 -133.15625 C 24.421875 -133.15625 20.117188 -134.691406 16.859375 -137.765625 C 13.597656 -140.847656 11.96875 -144.804688 11.96875 -149.640625 Z M 11.96875 -149.640625 "/></g></g><g transform="translate(848.289167, 825.749909)"><g><path d="M 56.578125 -44.9375 L 78.546875 -118.875 L 112.609375 -118.875 L 64.8125 18.453125 L 62.1875 24.71875 C 55.082031 40.25 43.363281 48.015625 27.03125 48.015625 C 22.414062 48.015625 17.726562 47.316406 12.96875 45.921875 L 12.96875 21.859375 L 17.796875 21.96875 C 23.804688 21.96875 28.289062 21.050781 31.25 19.21875 C 34.21875 17.394531 36.546875 14.359375 38.234375 10.109375 L 41.96875 0.328125 L 0.328125 -118.875 L 34.5 -118.875 Z M 56.578125 -44.9375 "/></g></g></g><g fill="#000000" fill-opacity="1"><g transform="translate(959.58066, 825.749909)"><g><path d="M 81.078125 0 C 79.609375 -2.851562 78.546875 -6.40625 77.890625 -10.65625 C 70.203125 -2.082031 60.207031 2.203125 47.90625 2.203125 C 36.257812 2.203125 26.609375 -1.164062 18.953125 -7.90625 C 11.296875 -14.644531 7.46875 -23.144531 7.46875 -33.40625 C 7.46875 -46 12.132812 -55.664062 21.46875 -62.40625 C 30.8125 -69.144531 44.3125 -72.550781 61.96875 -72.625 L 76.578125 -72.625 L 76.578125 -79.4375 C 76.578125 -84.925781 75.164062 -89.316406 72.34375 -92.609375 C 69.519531 -95.910156 65.070312 -97.5625 59 -97.5625 C 53.65625 -97.5625 49.460938 -96.28125 46.421875 -93.71875 C 43.378906 -91.15625 41.859375 -87.640625 41.859375 -83.171875 L 10.109375 -83.171875 C 10.109375 -90.054688 12.234375 -96.425781 16.484375 -102.28125 C 20.734375 -108.144531 26.738281 -112.738281 34.5 -116.0625 C 42.257812 -119.394531 50.972656 -121.0625 60.640625 -121.0625 C 75.296875 -121.0625 86.925781 -117.378906 95.53125 -110.015625 C 104.132812 -102.660156 108.4375 -92.316406 108.4375 -78.984375 L 108.4375 -27.46875 C 108.507812 -16.1875 110.082031 -7.65625 113.15625 -1.875 L 113.15625 0 Z M 54.828125 -22.078125 C 59.515625 -22.078125 63.832031 -23.117188 67.78125 -25.203125 C 71.738281 -27.296875 74.671875 -30.101562 76.578125 -33.625 L 76.578125 -54.046875 L 64.703125 -54.046875 C 48.816406 -54.046875 40.359375 -48.554688 39.328125 -37.578125 L 39.21875 -35.703125 C 39.21875 -31.742188 40.609375 -28.484375 43.390625 -25.921875 C 46.179688 -23.359375 49.992188 -22.078125 54.828125 -22.078125 Z M 54.828125 -22.078125 "/></g></g><g transform="translate(1080.210532, 825.749909)"><g><path d="M 78.984375 -89.09375 C 74.671875 -89.6875 70.863281 -89.984375 67.5625 -89.984375 C 55.550781 -89.984375 47.679688 -85.914062 43.953125 -77.78125 L 43.953125 0 L 12.1875 0 L 12.1875 -118.875 L 42.1875 -118.875 L 43.0625 -104.703125 C 49.4375 -115.609375 58.265625 -121.0625 69.546875 -121.0625 C 73.054688 -121.0625 76.351562 -120.585938 79.4375 -119.640625 Z M 78.984375 -89.09375 "/></g></g></g><g fill="#e4b53d" fill-opacity="1"><g transform="translate(1162.287187, 825.749909)"><g><path d="M 144.46875 0 L 111.515625 0 L 111.515625 -68.5625 L 47.234375 -68.5625 L 47.234375 0 L 14.28125 0 L 14.28125 -159.96875 L 47.234375 -159.96875 L 47.234375 -95.140625 L 111.515625 -95.140625 L 111.515625 -159.96875 L 144.46875 -159.96875 Z M 144.46875 0 "/></g></g><g transform="translate(1321.259341, 825.749909)"><g><path d="M 7.25 -60.53125 C 7.25 -72.320312 9.519531 -82.832031 14.0625 -92.0625 C 18.601562 -101.289062 25.140625 -108.429688 33.671875 -113.484375 C 42.203125 -118.535156 52.109375 -121.0625 63.390625 -121.0625 C 79.429688 -121.0625 92.523438 -116.15625 102.671875 -106.34375 C 112.816406 -96.53125 118.472656 -83.203125 119.640625 -66.359375 L 119.859375 -58.234375 C 119.859375 -39.992188 114.765625 -25.359375 104.578125 -14.328125 C 94.398438 -3.304688 80.742188 2.203125 63.609375 2.203125 C 46.472656 2.203125 32.796875 -3.289062 22.578125 -14.28125 C 12.359375 -25.269531 7.25 -40.210938 7.25 -59.109375 Z M 39 -58.234375 C 39 -46.953125 41.125 -38.328125 45.375 -32.359375 C 49.625 -26.390625 55.703125 -23.40625 63.609375 -23.40625 C 71.296875 -23.40625 77.300781 -26.351562 81.625 -32.25 C 85.945312 -38.144531 88.109375 -47.570312 88.109375 -60.53125 C 88.109375 -71.59375 85.945312 -80.160156 81.625 -86.234375 C 77.300781 -92.316406 71.222656 -95.359375 63.390625 -95.359375 C 55.628906 -95.359375 49.625 -92.335938 45.375 -86.296875 C 41.125 -80.253906 39 -70.898438 39 -58.234375 Z M 39 -58.234375 "/></g></g></g></svg>