<svg xmlns="http://www.w3.org/2000/svg" xmlns:xlink="http://www.w3.org/1999/xlink" width="2000" zoomAndPan="magnify" viewBox="0 0 1500 1499.999933" height="2000" preserveAspectRatio="xMidYMid meet" version="1.0"><defs><g/><clipPath id="4e6373e11d"><path d="M 824 662 L 1317 662 L 1317 1478.648438 L 824 1478.648438 Z M 824 662 " clip-rule="nonzero"/></clipPath><clipPath id="db9a6151ef"><path d="M 205 662 L 698 662 L 698 1478.648438 L 205 1478.648438 Z M 205 662 " clip-rule="nonzero"/></clipPath><clipPath id="234785aeab"><path d="M 691 21.398438 L 1187 21.398438 L 1187 382 L 691 382 Z M 691 21.398438 " clip-rule="nonzero"/></clipPath><clipPath id="a107853c00"><path d="M 621 312 L 1021 312 L 1021 752 L 621 752 Z M 621 312 " clip-rule="nonzero"/></clipPath><clipPath id="0fade69054"><path d="M 756.417969 312.984375 C 902.097656 312.984375 1020.515625 411.808594 1020.515625 532.78125 C 1020.515625 653.753906 902.097656 751.726562 756.417969 751.726562 C 610.738281 751.726562 492.316406 653.753906 492.316406 532.78125 C 492.316406 411.808594 610.738281 312.984375 756.417969 312.984375 Z M 756.417969 312.984375 " clip-rule="evenodd"/></clipPath></defs><path fill="#094195" d="M 292.113281 163.046875 C 212.882812 418.625 269.964844 608.605469 464.203125 733.835938 C 655.890625 836.066406 736.820312 960.449219 707.855469 1106.980469 C 697.632812 957.894531 544.285156 876.109375 391.789062 789.210938 C 205.214844 682.722656 110.652344 422.03125 292.113281 163.046875 Z M 292.113281 163.046875 " fill-opacity="1" fill-rule="evenodd"/><path fill="#094195" d="M 1207.941406 163.046875 C 1288.023438 418.625 1230.089844 608.605469 1035.851562 733.835938 C 844.164062 836.066406 763.230469 960.449219 792.199219 1106.980469 C 802.421875 957.894531 955.769531 876.109375 1109.117188 789.210938 C 1294.835938 682.722656 1389.402344 422.03125 1207.941406 163.046875 Z M 1207.941406 163.046875 " fill-opacity="1" fill-rule="evenodd"/><g clip-path="url(#4e6373e11d)"><path fill="#e4b53d" d="M 896.984375 1478.421875 C 839.054688 1247.550781 899.542969 1081.421875 1078.445312 980.894531 C 1253.945312 899.960938 1332.324219 793.472656 1313.582031 662.273438 C 1297.394531 793.472656 1156.824219 858.21875 1016.257812 928.078125 C 845.871094 1012.417969 748.75 1239.03125 896.984375 1478.421875 Z M 896.984375 1478.421875 " fill-opacity="1" fill-rule="evenodd"/></g><g clip-path="url(#db9a6151ef)"><path fill="#e4b53d" d="M 625.21875 1478.421875 C 683.152344 1247.550781 622.664062 1081.421875 442.90625 980.894531 C 267.40625 899.960938 189.03125 793.472656 207.773438 662.273438 C 223.960938 793.472656 365.378906 858.21875 505.097656 928.078125 C 675.484375 1012.417969 772.601562 1239.03125 625.21875 1478.421875 Z M 625.21875 1478.421875 " fill-opacity="1" fill-rule="evenodd"/></g><path fill="#1461ae" d="M 512.765625 254.203125 C 366.230469 248.238281 304.894531 242.273438 328.746094 237.164062 C 612.441406 95.742188 753.859375 25.886719 753.859375 25.886719 C 776.011719 124.707031 788.789062 193.714844 746.195312 247.386719 C 811.792969 327.46875 669.519531 239.71875 520.429688 385.398438 C 515.320312 297.648438 512.765625 254.203125 512.765625 254.203125 Z M 512.765625 254.203125 " fill-opacity="1" fill-rule="evenodd"/><g clip-path="url(#234785aeab)"><path fill="#094195" d="M 998.367188 249.941406 C 1144.046875 243.980469 1205.386719 238.015625 1181.53125 232.902344 C 898.6875 92.335938 757.269531 21.625 757.269531 21.625 C 734.265625 120.449219 661.851562 192.863281 704.449219 246.535156 C 717.226562 282.316406 756.417969 292.539062 751.304688 284.019531 C 824.570312 282.316406 935.324219 318.949219 990.699219 381.140625 C 995.808594 293.390625 998.367188 249.941406 998.367188 249.941406 Z M 998.367188 249.941406 " fill-opacity="1" fill-rule="evenodd"/></g><path fill="#1461ae" d="M 416.496094 211.605469 L 433.535156 211.605469 L 433.535156 457.8125 L 416.496094 457.8125 Z M 416.496094 211.605469 " fill-opacity="1" fill-rule="evenodd"/><path fill="#1461ae" d="M 406.273438 442.476562 L 411.382812 442.476562 L 411.382812 534.484375 L 406.273438 534.484375 Z M 406.273438 442.476562 " fill-opacity="1" fill-rule="evenodd"/><path fill="#1461ae" d="M 413.089844 472.296875 L 418.199219 472.296875 L 418.199219 564.304688 L 413.089844 564.304688 Z M 413.089844 472.296875 " fill-opacity="1" fill-rule="evenodd"/><path fill="#1461ae" d="M 422.460938 439.921875 L 427.570312 439.921875 L 427.570312 531.929688 L 422.460938 531.929688 Z M 422.460938 439.921875 " fill-opacity="1" fill-rule="evenodd"/><path fill="#1461ae" d="M 431.832031 466.332031 L 436.941406 466.332031 L 436.941406 558.339844 L 431.832031 558.339844 Z M 431.832031 466.332031 " fill-opacity="1" fill-rule="evenodd"/><path fill="#1461ae" d="M 436.941406 443.328125 L 442.054688 443.328125 L 442.054688 535.339844 L 436.941406 535.339844 Z M 436.941406 443.328125 " fill-opacity="1" fill-rule="evenodd"/><path fill="#1461ae" d="M 454.832031 462.070312 C 454.832031 463.160156 454.78125 464.246094 454.671875 465.328125 C 454.566406 466.410156 454.40625 467.488281 454.195312 468.554688 C 453.980469 469.621094 453.71875 470.675781 453.402344 471.71875 C 453.085938 472.757812 452.71875 473.78125 452.304688 474.785156 C 451.886719 475.792969 451.421875 476.773438 450.910156 477.734375 C 450.398438 478.695312 449.835938 479.625 449.234375 480.53125 C 448.628906 481.4375 447.980469 482.308594 447.289062 483.148438 C 446.601562 483.992188 445.871094 484.796875 445.101562 485.566406 C 444.332031 486.335938 443.527344 487.066406 442.683594 487.753906 C 441.84375 488.445312 440.972656 489.09375 440.066406 489.699219 C 439.160156 490.300781 438.230469 490.859375 437.269531 491.375 C 436.308594 491.886719 435.328125 492.351562 434.320312 492.769531 C 433.316406 493.183594 432.292969 493.550781 431.253906 493.867188 C 430.210938 494.183594 429.15625 494.445312 428.089844 494.660156 C 427.023438 494.871094 425.945312 495.03125 424.863281 495.136719 C 423.78125 495.242188 422.695312 495.296875 421.605469 495.296875 C 420.519531 495.296875 419.433594 495.242188 418.351562 495.136719 C 417.269531 495.03125 416.191406 494.871094 415.125 494.660156 C 414.058594 494.445312 413.003906 494.183594 411.960938 493.867188 C 410.921875 493.550781 409.898438 493.183594 408.894531 492.769531 C 407.886719 492.351562 406.90625 491.886719 405.945312 491.375 C 404.984375 490.859375 404.054688 490.300781 403.148438 489.699219 C 402.242188 489.09375 401.371094 488.445312 400.53125 487.753906 C 399.6875 487.066406 398.882812 486.335938 398.113281 485.566406 C 397.34375 484.796875 396.613281 483.992188 395.925781 483.148438 C 395.234375 482.308594 394.585938 481.4375 393.980469 480.53125 C 393.378906 479.625 392.816406 478.695312 392.304688 477.734375 C 391.792969 476.773438 391.328125 475.792969 390.910156 474.785156 C 390.496094 473.78125 390.128906 472.757812 389.8125 471.71875 C 389.496094 470.675781 389.234375 469.621094 389.019531 468.554688 C 388.808594 467.488281 388.648438 466.410156 388.542969 465.328125 C 388.433594 464.246094 388.382812 463.160156 388.382812 462.070312 C 388.382812 460.984375 388.433594 459.898438 388.542969 458.816406 C 388.648438 457.734375 388.808594 456.65625 389.019531 455.589844 C 389.234375 454.523438 389.496094 453.46875 389.8125 452.425781 C 390.128906 451.386719 390.496094 450.363281 390.910156 449.355469 C 391.328125 448.351562 391.792969 447.371094 392.304688 446.410156 C 392.816406 445.449219 393.378906 444.519531 393.980469 443.613281 C 394.585938 442.707031 395.234375 441.835938 395.925781 440.996094 C 396.613281 440.152344 397.34375 439.347656 398.113281 438.578125 C 398.882812 437.808594 399.6875 437.078125 400.53125 436.390625 C 401.371094 435.699219 402.242188 435.050781 403.148438 434.445312 C 404.054688 433.84375 404.984375 433.28125 405.945312 432.769531 C 406.90625 432.257812 407.886719 431.792969 408.894531 431.375 C 409.898438 430.960938 410.921875 430.59375 411.960938 430.277344 C 413.003906 429.960938 414.058594 429.699219 415.125 429.484375 C 416.191406 429.273438 417.269531 429.113281 418.351562 429.007812 C 419.433594 428.898438 420.519531 428.847656 421.605469 428.847656 C 422.695312 428.847656 423.78125 428.898438 424.863281 429.007812 C 425.945312 429.113281 427.023438 429.273438 428.089844 429.484375 C 429.15625 429.699219 430.210938 429.960938 431.253906 430.277344 C 432.292969 430.59375 433.316406 430.960938 434.320312 431.375 C 435.328125 431.792969 436.308594 432.257812 437.269531 432.769531 C 438.230469 433.28125 439.160156 433.84375 440.066406 434.445312 C 440.972656 435.050781 441.84375 435.699219 442.683594 436.390625 C 443.527344 437.078125 444.332031 437.808594 445.101562 438.578125 C 445.871094 439.347656 446.601562 440.152344 447.289062 440.996094 C 447.980469 441.835938 448.628906 442.707031 449.234375 443.613281 C 449.835938 444.519531 450.398438 445.449219 450.910156 446.410156 C 451.421875 447.371094 451.886719 448.351562 452.304688 449.355469 C 452.71875 450.363281 453.085938 451.386719 453.402344 452.425781 C 453.71875 453.46875 453.980469 454.523438 454.195312 455.589844 C 454.40625 456.65625 454.566406 457.734375 454.671875 458.816406 C 454.78125 459.898438 454.832031 460.984375 454.832031 462.070312 Z M 454.832031 462.070312 " fill-opacity="1" fill-rule="nonzero"/><path fill="#1461ae" d="M 756.417969 312.984375 C 902.097656 312.984375 1020.515625 411.808594 1020.515625 532.78125 C 1020.515625 653.753906 902.097656 751.726562 756.417969 751.726562 C 610.738281 751.726562 492.316406 653.753906 492.316406 532.78125 C 492.316406 411.808594 610.738281 312.984375 756.417969 312.984375 Z M 756.417969 312.984375 " fill-opacity="1" fill-rule="evenodd"/><g clip-path="url(#a107853c00)"><g clip-path="url(#0fade69054)"><path fill="#094195" d="M 1150.007812 307.875 C 1111.671875 611.160156 1011.996094 773.878906 850.980469 795.175781 C 628.625 623.085938 567.289062 468.035156 668.667969 330.875 C 776.863281 278.90625 937.027344 271.242188 1150.007812 307.875 Z M 1150.007812 307.875 " fill-opacity="1" fill-rule="evenodd"/></g></g><g fill="#1461ae" fill-opacity="1"><g transform="translate(664.551528, 871.861417)"><g><path d="M 70.890625 -88.4375 L 70.890625 -73.734375 L 45.375 -73.734375 L 45.375 0 L 27.953125 0 L 27.953125 -73.734375 L 2.421875 -73.734375 L 2.421875 -88.4375 Z M 70.890625 -88.4375 "/></g></g></g><g fill="#e4b53d" fill-opacity="1"><g transform="translate(737.864022, 871.861417)"><g><path d="M 68.59375 -55.171875 L 68.59375 -88.4375 L 86.015625 -88.4375 L 86.015625 0 L 68.59375 0 L 68.59375 -40.28125 L 28.96875 -40.28125 L 28.96875 0 L 11.5 0 L 11.5 -88.4375 L 28.96875 -88.4375 L 28.96875 -55.171875 Z M 68.59375 -55.171875 "/></g></g></g></svg>